HIERARCHY
ROOT Hips
{
	OFFSET 0.000000 0.000000 0.000000
	CHANNELS 6 Xposition Yposition Zposition Zrotation Xrotation Yrotation
	JOINT RightUpLeg
	{
		OFFSET -9.711200 0.000000 0.000000
		CHANNELS 3 Zrotation Xrotation Yrotation
		JOINT RightLeg
		{
			OFFSET 0.000000 -42.071800 0.000000
			CHANNELS 3 Zrotation Xrotation Yrotation
			JOINT RightFoot
			{
				OFFSET 0.000000 -40.121000 0.000000
				CHANNELS 3 Zrotation Xrotation Yrotation
				JOINT RightToe
				{
					OFFSET 0.000000 -9.631400 3.100600
					CHANNELS 3 Zrotation Xrotation Yrotation
					JOINT RightToeEnd
					{
						OFFSET 0.000000 -4.048200 4.118000
						CHANNELS 3 Zrotation Xrotation Yrotation
						End Site
						{
						    OFFSET 0.000000 -3.505200 3.565600
						}
					}
				}
			}
		}
	}
	JOINT LeftUpLeg
	{
		OFFSET 9.711200 0.000000 0.000000
		CHANNELS 3 Zrotation Xrotation Yrotation
		JOINT LeftLeg
		{
			OFFSET 0.000000 -42.071800 0.000000
			CHANNELS 3 Zrotation Xrotation Yrotation
			JOINT LeftFoot
			{
				OFFSET 0.000000 -40.121000 0.000000
				CHANNELS 3 Zrotation Xrotation Yrotation
				JOINT LeftToe
				{
					OFFSET 0.000000 -9.631400 3.100600
					CHANNELS 3 Zrotation Xrotation Yrotation
					JOINT LeftToeEnd
					{
						OFFSET 0.000000 -4.048200 4.118000
						CHANNELS 3 Zrotation Xrotation Yrotation
						End Site
						{
						    OFFSET 0.000000 -3.505200 3.565600
						}
					}
				}
			}
		}
	}
	JOINT Spine
	{
		OFFSET 0.000000 14.595200 0.000000
		CHANNELS 3 Zrotation Xrotation Yrotation
		JOINT Spine1
		{
			OFFSET 0.000000 9.770300 0.000000
			CHANNELS 3 Zrotation Xrotation Yrotation
			JOINT Spine2
			{
				OFFSET 0.000000 14.330100 0.000000
				CHANNELS 3 Zrotation Xrotation Yrotation
				JOINT LeftShoulder
				{
					OFFSET 2.000000 14.330100 0.000000
					CHANNELS 3 Zrotation Xrotation Yrotation
					JOINT LeftArm
					{
						OFFSET 14.369100 0.000000 0.000000
						CHANNELS 3 Zrotation Xrotation Yrotation
						JOINT LeftForeArm
						{
							OFFSET 0.000000 -27.196400 0.000000
							CHANNELS 3 Zrotation Xrotation Yrotation
							JOINT LeftHand
							{
								OFFSET 0.000000 -24.849000 0.000000
								CHANNELS 3 Zrotation Xrotation Yrotation
								JOINT LeftFinger0
								{
									OFFSET 0.000000 -7.367300 0.000000
									CHANNELS 3 Zrotation Xrotation Yrotation
									End Site
									{
									    OFFSET 0.000000 -5.000000 0.000000
									}
								}
							}
						}
					}
				}
				JOINT RightShoulder
				{
					OFFSET -2.000000 14.330100 0.000000
					CHANNELS 3 Zrotation Xrotation Yrotation
					JOINT RightArm
					{
						OFFSET -14.369100 0.000000 0.000000
						CHANNELS 3 Zrotation Xrotation Yrotation
						JOINT RightForeArm
						{
							OFFSET 0.000000 -27.196400 0.000000
							CHANNELS 3 Zrotation Xrotation Yrotation
							JOINT RightHand
							{
								OFFSET 0.000000 -24.849000 0.000000
								CHANNELS 3 Zrotation Xrotation Yrotation
								JOINT RightFinger0
								{
									OFFSET 0.000000 -7.367300 0.000000
									CHANNELS 3 Zrotation Xrotation Yrotation
									End Site
									{
									    OFFSET 0.000000 -5.000000 0.000000
									}
								}
							}
						}
					}
				}
				JOINT Neck
				{
					OFFSET 0.000000 14.330100 0.000000
					CHANNELS 3 Zrotation Xrotation Yrotation
					JOINT Head
					{
						OFFSET 0.000000 8.944300 0.000000
						CHANNELS 3 Zrotation Xrotation Yrotation
						JOINT HeadTip
						{
							OFFSET 0.000000 10.000000 0.000000
							CHANNELS 3 Zrotation Xrotation Yrotation
							End Site
							{
							    OFFSET 0.000000 5.000000 0.000000
							}
						}
					}
				}
			}
		}
	}
}
MOTION
Frames:	14
Frame Time:	0.033332
-108.435800 87.748800 2.754300 2.412314 1.410397 -47.789940 8.747609 1.995873 -18.282086 -0.000000 35.929145 -0.000000 10.777758 -9.463719 -13.101360 0.000000 4.035607 -0.000000 -0.000000 -0.000000 -0.000000 -2.910022 -22.574204 6.827309 -0.000000 19.536150 0.000000 -12.241420 -41.830356 -23.963728 -0.000000 7.272807 -0.000000 -0.000000 0.000000 -0.000000 -15.908236 5.681428 30.909532 0.000000 7.097342 -0.000000 0.000000 0.000000 -0.000000 -21.290864 -0.000000 7.714811 44.083783 -8.594566 -28.305972 0.000000 -85.061875 0.000000 -4.220074 0.394514 -17.636050 -0.000000 0.000000 -0.000000 -15.129847 -0.000000 18.287699 15.885444 -60.648644 59.104638 -0.000061 -21.775483 -0.000012 2.849901 4.249754 11.222714 -0.000000 -0.000000 0.000000 0.000000 0.000000 -0.000000 -16.228504 -15.292186 -54.064084 0.000000 0.000000 -0.000000 
-110.557200 87.777700 2.184000 2.549271 2.823095 -41.826736 5.683558 -2.868996 -23.060371 -0.000000 43.670087 -0.000000 8.722811 -9.098886 -24.763132 -0.000000 11.358224 -0.000000 -0.000000 -0.000000 -0.000000 -2.583187 -23.918122 5.311702 -0.000000 20.811282 -0.000000 -13.261322 -42.408981 -25.638490 -0.000000 7.384058 0.000000 -0.000000 0.000000 -0.000000 -15.382699 9.392783 30.916348 -0.000000 7.518686 0.000000 -0.000000 0.000000 -0.000000 -18.093516 -0.000000 7.781108 40.309625 -2.041125 -25.815563 -0.000000 -84.545117 -0.000000 -2.429922 1.485261 -15.892116 0.000000 0.000000 -0.000000 -14.936251 0.000000 16.952189 27.145316 -56.277155 73.716628 -0.000110 -35.772826 -0.000035 9.028684 2.806906 13.242120 0.000000 0.000000 0.000000 -0.000000 0.000000 -0.000000 -12.027448 -10.683281 -56.530233 -0.000000 0.000000 -0.000000 
-112.435500 87.971300 1.907000 1.595214 4.786024 -36.981017 2.089106 -7.816219 -24.784759 0.000000 51.603053 -0.000000 8.345588 -10.906620 -26.405393 -0.000000 11.035272 0.000000 0.000000 -0.000000 -0.000000 -1.163367 -25.007770 4.652099 0.000000 21.807378 -0.000000 -13.502368 -43.251211 -26.274062 0.000000 7.559883 -0.000000 0.000000 0.000000 -0.000000 -12.575151 11.913409 29.004625 -0.000000 8.111397 -0.000000 -0.000000 0.000000 -0.000000 -15.305560 0.000000 7.571480 35.552590 5.164521 -19.351762 -0.000000 -80.825907 0.000000 -0.607551 6.962997 -15.589151 0.000000 0.000000 0.000000 -15.570595 0.000000 14.342661 32.078259 -52.490902 87.572046 -0.000185 -50.591826 -0.000087 17.204832 2.118135 15.590684 0.000000 0.000000 -0.000000 -0.000000 0.000000 -0.000000 -7.530494 -6.509399 -59.030492 -0.000000 0.000000 -0.000000 
-114.266300 88.433300 1.854100 0.272249 6.347750 -33.605964 -1.657884 -12.091740 -24.420028 -0.000000 56.923433 -0.000000 12.632193 -11.777839 -23.673716 -0.000000 10.633039 0.000000 -0.000000 -0.000000 -0.000000 0.684368 -24.984704 5.266352 -0.000000 21.533316 -0.000000 -13.344311 -43.656662 -26.358980 -0.000000 7.805533 0.000000 -0.000000 -0.000000 -0.000000 -10.034211 13.655619 26.220520 0.000000 8.224119 0.000000 -0.000000 -0.000000 -0.000000 -12.867017 -0.000000 7.517978 31.467676 10.991381 -12.177036 0.000000 -75.226913 -0.000000 4.213363 10.308057 -15.864850 -0.000000 0.000000 -0.000000 -14.795266 0.000000 12.758867 29.185501 -49.155074 91.535137 -0.000318 -64.424987 -0.000200 19.068068 2.469818 15.973815 0.000000 0.000000 -0.000000 -0.000000 -0.000000 -0.000000 -3.579644 -5.418606 -60.314248 -0.000000 0.000000 -0.000000 
-116.147600 89.023400 1.973700 -1.290894 7.558493 -30.793416 -5.133510 -15.670359 -24.928150 0.000000 59.720550 0.000000 11.654517 -14.388551 -23.344644 -0.000000 9.685785 0.000000 -0.000000 -0.000000 -0.000000 2.500609 -24.244833 5.915528 -0.000000 20.584191 -0.000000 -11.827722 -44.106668 -25.138584 -0.000000 8.094915 -0.000000 -0.000000 0.000000 -0.000000 -7.582141 14.757025 22.759730 0.000000 8.100530 -0.000000 -0.000000 0.000000 -0.000000 -10.997994 -0.000000 7.370475 29.740541 14.586953 -7.683337 -0.000000 -68.316236 -0.000000 8.504080 9.665393 -14.105147 0.000000 -0.000000 -0.000000 -12.744007 -0.000000 11.337421 20.927524 -46.357280 88.322614 -0.000620 -76.217735 -0.000486 18.594012 2.419179 17.174490 -0.000000 0.000000 -0.000000 -0.000000 0.000000 -0.000000 -1.170342 -6.543091 -59.874045 -0.000000 0.000000 -0.000000 
-118.116400 89.612800 2.153900 -3.152355 8.462824 -28.450723 -7.707648 -18.596346 -25.983457 -0.000000 60.886525 0.000000 7.726183 -19.474177 -22.403957 -0.000000 8.035005 -0.000000 -0.000000 -0.000000 -0.000000 4.551944 -23.226258 6.721210 0.000000 19.724897 0.000000 -9.707091 -44.587071 -23.308063 -0.000000 7.899098 -0.000000 -0.000000 0.000000 -0.000000 -5.201437 15.368894 19.078800 -0.000000 7.910230 -0.000000 0.000000 0.000000 -0.000000 -9.934045 -0.000000 6.831112 30.757327 16.915338 -6.487854 -0.000000 -62.870661 -0.000000 8.337624 10.009838 -12.301712 0.000000 -0.000000 -0.000000 -9.375162 -0.000000 9.760307 9.701681 -44.167164 81.947212 -0.001631 -84.673600 -0.001486 17.013664 1.296927 15.288135 0.000000 0.000000 0.000000 0.000000 0.000000 -0.000000 0.181845 -8.218581 -58.262332 -0.000000 0.000000 -0.000000 
-120.202900 90.093800 2.369300 -4.969115 8.724441 -26.784704 -9.421678 -20.639528 -26.396363 -0.000000 60.243811 0.000000 9.124712 -22.732002 -21.821607 -0.000000 7.572887 -0.000000 -0.000000 0.000000 -0.000000 6.465397 -21.738759 8.321616 -0.000000 19.030265 -0.000000 -6.501848 -45.301822 -20.632661 -0.000000 7.274646 0.000000 -0.000000 0.000000 -0.000000 -3.614081 15.741921 15.885205 -0.000000 7.718333 -0.000000 -0.000000 -0.000000 -0.000000 -8.517585 -0.000000 6.295860 32.689817 17.811964 -8.225190 0.000000 -58.536065 0.000000 5.149017 10.561119 -11.386815 -0.000000 -0.000000 0.000000 -5.166065 0.000000 8.275296 -2.942461 -42.255975 73.572261 -0.009204 -89.053603 -0.009053 15.634620 0.200798 11.735942 -0.000000 -0.000000 -0.000000 -0.000000 -0.000000 -0.000000 1.480664 -9.004200 -56.521795 -0.000000 0.000000 -0.000000 
-122.352400 90.385000 2.673800 -6.338498 8.457703 -25.392363 -10.853976 -21.850554 -27.667838 -0.000000 58.170029 -0.000000 10.061438 -25.628589 -21.950201 -0.000000 7.143669 -0.000000 -0.000000 -0.000000 -0.000000 7.882322 -19.943370 10.517640 0.000000 18.236085 -0.000000 -3.496075 -46.246596 -17.831071 -0.000000 6.625696 -0.000000 -0.000000 0.000000 -0.000000 -2.874781 15.797332 13.068393 0.000000 7.546714 0.000000 -0.000000 -0.000000 -0.000000 -7.128608 -0.000000 5.882767 35.139343 17.199225 -10.879777 -0.000000 -55.052156 -0.000000 -0.341100 10.862504 -13.215473 0.000000 0.000000 -0.000000 -0.992645 0.000000 6.880977 -14.993252 -40.009505 64.197954 -0.009268 -89.060201 -0.009117 14.919462 0.382947 9.883549 -0.000000 0.000000 -0.000000 -0.000000 -0.000000 -0.000000 2.938547 -8.869611 -54.732142 0.000000 -0.000000 -0.000000 
-124.570000 90.530500 2.979900 -7.283194 7.935811 -23.759107 -11.621816 -22.222106 -29.300565 -0.000000 54.065484 -0.000000 12.598423 -27.942214 -18.993310 -0.000000 6.590142 -0.000000 -0.000000 0.000000 0.000000 9.050948 -18.393774 10.948794 -0.000000 17.743011 -0.000000 -2.678645 -47.180753 -16.549565 -0.000000 6.252704 -0.000000 0.000000 0.000000 0.000000 -2.660062 15.631029 10.393020 -0.000000 7.252051 -0.000000 -0.000000 0.000000 -0.000000 -6.094085 0.000000 5.428924 37.858125 15.251470 -12.857778 0.000000 -52.328542 -0.000000 -6.592167 11.519245 -18.735347 -0.000000 -0.000000 -0.000000 2.458562 -0.000000 5.855780 -24.812002 -36.872808 54.466762 -0.001934 -85.506159 -0.001788 14.595486 3.005289 10.952801 -0.000000 -0.000000 -0.000000 -0.000000 0.000000 -0.000000 4.473586 -7.959155 -53.257527 -0.000000 0.000000 0.000000 
-126.845100 90.598700 3.275100 -7.693416 7.174312 -22.041625 -11.637630 -21.822001 -30.385396 0.000000 47.907039 -0.000000 16.489035 -29.611633 -15.779691 -0.000000 6.727138 0.000000 -0.000000 0.000000 -0.000000 10.021715 -17.164957 10.663201 -0.000000 17.733794 -0.000000 -4.045393 -47.675191 -16.977826 -0.000000 5.821718 -0.000000 0.000000 0.000000 -0.000000 -3.091955 15.244503 8.253127 -0.000000 6.999791 0.000000 -0.000000 0.000000 0.000000 -5.226009 0.000000 4.875965 40.144623 12.287011 -12.812285 -0.000000 -50.480463 0.000000 -11.387729 13.714023 -25.640015 -0.000000 0.000000 0.000000 4.868965 0.000000 5.303687 -32.145201 -32.849041 45.237433 -0.000945 -80.864320 -0.000806 13.143864 7.164030 12.230120 -0.000000 -0.000000 -0.000000 -0.000000 0.000000 0.000000 6.243787 -6.432709 -52.057231 0.000000 -0.000000 -0.000000 
-129.098000 90.552900 3.650100 -7.702715 6.159175 -20.558252 -10.887643 -20.664243 -30.395274 0.000000 40.109314 0.000000 18.593288 -31.024732 -13.130592 0.000000 6.146700 -0.000000 -0.000000 -0.000000 0.000000 10.519778 -15.941452 10.756102 0.000000 17.955594 0.000000 -4.182859 -48.237681 -16.663447 -0.000000 4.976088 -0.000000 -0.000000 0.000000 -0.000000 -3.823002 14.636275 6.797411 -0.000000 6.958668 -0.000000 -0.000000 0.000000 -0.000000 -4.704744 0.000000 4.404662 41.759791 8.709522 -10.935186 0.000000 -48.970660 -0.000000 -10.973478 15.214821 -29.853048 -0.000000 0.000000 0.000000 5.919784 -0.000000 4.685732 -36.889763 -28.460671 37.558221 -0.000664 -77.106110 -0.000529 11.059580 8.901669 12.772626 -0.000000 0.000000 0.000000 -0.000000 0.000000 -0.000000 7.699606 -4.460663 -51.131080 -0.000000 -0.000000 -0.000000 
-131.252500 90.342800 4.110000 -7.252009 4.936563 -19.406187 -9.702615 -18.909435 -28.796885 -0.000000 31.605006 -0.000000 19.804403 -32.252730 -11.063882 -0.000000 5.827209 -0.000000 -0.000000 0.000000 -0.000000 10.359887 -14.703915 11.317607 0.000000 18.352345 -0.000000 -2.450550 -49.061535 -14.629738 -0.000000 4.222843 -0.000000 -0.000000 -0.000000 0.000000 -4.781732 13.881365 5.820963 0.000000 7.007750 -0.000000 -0.000000 0.000000 0.000000 -4.783961 -0.000000 4.259799 42.889255 4.620061 -7.499793 -0.000000 -47.223688 -0.000000 -7.172690 14.097071 -30.365441 0.000000 -0.000000 -0.000000 6.115611 -0.000000 3.871226 -40.054359 -24.216951 31.560641 -0.000571 -75.083124 -0.000439 10.079590 8.582004 13.479374 0.000000 -0.000000 0.000000 -0.000000 0.000000 0.000000 8.494037 -2.178358 -50.292321 -0.000000 -0.000000 -0.000000 
-133.381600 89.989200 4.544200 -6.441055 3.564873 -18.370865 -8.498851 -16.850878 -26.172418 -0.000000 24.070297 -0.000000 15.648800 -33.458243 -14.236169 0.000000 5.933431 -0.000000 -0.000000 0.000000 -0.000000 10.042741 -13.546091 11.358040 -0.000000 19.004935 -0.000000 -2.019926 -50.102339 -13.711040 -0.000000 3.571611 0.000000 -0.000000 0.000000 0.000000 -5.938823 13.088706 5.244281 0.000000 7.117585 -0.000000 -0.000000 -0.000000 0.000000 -5.199904 0.000000 4.106940 43.449483 0.387040 -2.391629 0.000000 -45.990962 -0.000000 -2.605906 11.379923 -27.594151 -0.000000 0.000000 0.000000 5.983735 -0.000000 2.872780 -42.561136 -20.312759 27.543463 -0.000556 -74.709868 -0.000425 9.854947 8.280199 11.149585 -0.000000 -0.000000 0.000000 -0.000000 -0.000000 0.000000 8.966249 0.095516 -49.421257 -0.000000 0.000000 -0.000000 
-135.497300 89.519400 5.027100 -5.507124 1.814759 -17.054559 -7.852411 -14.440807 -25.175850 0.000000 19.679808 -0.000000 3.519242 -31.632277 -23.389618 -0.000000 7.043755 -0.000000 0.000000 0.000000 -0.000000 9.739944 -12.199722 9.973867 -0.000000 19.945768 -0.000000 -4.292826 -51.425491 -14.689629 -0.000000 3.595942 -0.000000 -0.000000 0.000000 0.000000 -6.992851 12.658606 4.672523 -0.000000 7.225484 -0.000000 -0.000000 0.000000 0.000000 -5.834185 -0.000000 4.027864 43.416652 -3.848054 3.379256 0.000000 -46.043432 0.000000 0.935805 9.357308 -23.619623 -0.000000 0.000000 -0.000000 5.735181 -0.000000 1.798084 -44.754412 -16.817748 25.521115 -0.000579 -75.276808 -0.000446 9.940116 7.545486 6.924350 -0.000000 0.000000 0.000000 -0.000000 0.000000 0.000000 9.006831 2.306432 -48.540087 -0.000000 -0.000000 -0.000000 
